<mxfile host="app.diagrams.net" modified="2022-08-05T09:56:17.275Z" agent="5.0 (Macintosh; Intel Mac OS X 10_15_7) AppleWebKit/537.36 (KHTML, like Gecko) Chrome/103.0.0.0 Safari/537.36" etag="X-idP2jIAu_iCOsUk-7o" version="20.2.2" type="github">
  <diagram id="m3HsGJ8t5_kxkbI8cPeJ" name="Page-1">
    <mxGraphModel dx="882" dy="843" grid="1" gridSize="8" guides="1" tooltips="1" connect="1" arrows="1" fold="1" page="0" pageScale="1" pageWidth="850" pageHeight="1100" math="0" shadow="0">
      <root>
        <mxCell id="0" />
        <mxCell id="1" parent="0" />
        <mxCell id="sVO2ctUpy_3r26cttc1g-8" value="Clients" style="group;labelPosition=center;verticalLabelPosition=bottom;align=center;verticalAlign=top;" vertex="1" connectable="0" parent="1">
          <mxGeometry x="272" y="32" width="290" height="52.5" as="geometry" />
        </mxCell>
        <mxCell id="sVO2ctUpy_3r26cttc1g-1" value="" style="verticalLabelPosition=bottom;html=1;verticalAlign=top;align=center;strokeColor=none;fillColor=#00BEF2;shape=mxgraph.azure.mobile;pointerEvents=1;" vertex="1" parent="sVO2ctUpy_3r26cttc1g-8">
          <mxGeometry x="70" y="2.5" width="35" height="50" as="geometry" />
        </mxCell>
        <mxCell id="sVO2ctUpy_3r26cttc1g-2" value="" style="verticalLabelPosition=bottom;html=1;verticalAlign=top;align=center;strokeColor=none;fillColor=#00BEF2;shape=mxgraph.azure.computer;pointerEvents=1;" vertex="1" parent="sVO2ctUpy_3r26cttc1g-8">
          <mxGeometry y="2.5" width="50" height="45" as="geometry" />
        </mxCell>
        <mxCell id="sVO2ctUpy_3r26cttc1g-5" value="" style="verticalLabelPosition=bottom;html=1;verticalAlign=top;align=center;strokeColor=none;fillColor=#00BEF2;shape=mxgraph.azure.computer;pointerEvents=1;" vertex="1" parent="sVO2ctUpy_3r26cttc1g-8">
          <mxGeometry x="120" y="2.5" width="50" height="45" as="geometry" />
        </mxCell>
        <mxCell id="sVO2ctUpy_3r26cttc1g-6" value="" style="verticalLabelPosition=bottom;html=1;verticalAlign=top;align=center;strokeColor=none;fillColor=#00BEF2;shape=mxgraph.azure.mobile;pointerEvents=1;" vertex="1" parent="sVO2ctUpy_3r26cttc1g-8">
          <mxGeometry x="185" width="35" height="50" as="geometry" />
        </mxCell>
        <mxCell id="sVO2ctUpy_3r26cttc1g-7" value="" style="verticalLabelPosition=bottom;html=1;verticalAlign=top;align=center;strokeColor=none;fillColor=#00BEF2;shape=mxgraph.azure.computer;pointerEvents=1;" vertex="1" parent="sVO2ctUpy_3r26cttc1g-8">
          <mxGeometry x="240" y="2.5" width="50" height="45" as="geometry" />
        </mxCell>
        <mxCell id="sVO2ctUpy_3r26cttc1g-11" value="The Internet" style="outlineConnect=0;dashed=0;verticalLabelPosition=bottom;verticalAlign=top;align=center;html=1;shape=mxgraph.aws3.internet_2;fillColor=#D2D3D3;gradientColor=none;" vertex="1" parent="1">
          <mxGeometry x="240" y="216" width="78" height="54" as="geometry" />
        </mxCell>
        <mxCell id="sVO2ctUpy_3r26cttc1g-12" value="Load Balancer" style="sketch=0;outlineConnect=0;fontColor=#232F3E;gradientColor=none;fillColor=#4D27AA;strokeColor=none;dashed=0;verticalLabelPosition=bottom;verticalAlign=top;align=center;html=1;fontSize=12;fontStyle=0;aspect=fixed;pointerEvents=1;shape=mxgraph.aws4.network_load_balancer;" vertex="1" parent="1">
          <mxGeometry x="378.5" y="192" width="78" height="78" as="geometry" />
        </mxCell>
        <mxCell id="sVO2ctUpy_3r26cttc1g-14" value="Database" style="strokeWidth=2;html=1;shape=mxgraph.flowchart.database;whiteSpace=wrap;labelPosition=center;verticalLabelPosition=bottom;align=center;verticalAlign=top;" vertex="1" parent="1">
          <mxGeometry x="387.5" y="576" width="60" height="80" as="geometry" />
        </mxCell>
        <mxCell id="sVO2ctUpy_3r26cttc1g-57" value="Stateless Web Servers" style="group;labelPosition=center;verticalLabelPosition=bottom;align=center;verticalAlign=top;" vertex="1" connectable="0" parent="1">
          <mxGeometry x="208" y="320" width="429" height="80" as="geometry" />
        </mxCell>
        <mxCell id="sVO2ctUpy_3r26cttc1g-13" value="" style="sketch=0;outlineConnect=0;fontColor=#232F3E;gradientColor=none;fillColor=#232F3D;strokeColor=none;dashed=0;verticalLabelPosition=bottom;verticalAlign=top;align=center;html=1;fontSize=12;fontStyle=0;aspect=fixed;pointerEvents=1;shape=mxgraph.aws4.traditional_server;" vertex="1" parent="sVO2ctUpy_3r26cttc1g-57">
          <mxGeometry width="45" height="78" as="geometry" />
        </mxCell>
        <mxCell id="sVO2ctUpy_3r26cttc1g-15" value="" style="sketch=0;outlineConnect=0;fontColor=#232F3E;gradientColor=none;fillColor=#232F3D;strokeColor=none;dashed=0;verticalLabelPosition=bottom;verticalAlign=top;align=center;html=1;fontSize=12;fontStyle=0;aspect=fixed;pointerEvents=1;shape=mxgraph.aws4.traditional_server;" vertex="1" parent="sVO2ctUpy_3r26cttc1g-57">
          <mxGeometry x="96" width="45" height="78" as="geometry" />
        </mxCell>
        <mxCell id="sVO2ctUpy_3r26cttc1g-16" value="" style="sketch=0;outlineConnect=0;fontColor=#232F3E;gradientColor=none;fillColor=#232F3D;strokeColor=none;dashed=0;verticalLabelPosition=bottom;verticalAlign=top;align=center;html=1;fontSize=12;fontStyle=0;aspect=fixed;pointerEvents=1;shape=mxgraph.aws4.traditional_server;" vertex="1" parent="sVO2ctUpy_3r26cttc1g-57">
          <mxGeometry x="192" width="45" height="78" as="geometry" />
        </mxCell>
        <mxCell id="sVO2ctUpy_3r26cttc1g-17" value="" style="sketch=0;outlineConnect=0;fontColor=#232F3E;gradientColor=none;fillColor=#232F3D;strokeColor=none;dashed=0;verticalLabelPosition=bottom;verticalAlign=top;align=center;html=1;fontSize=12;fontStyle=0;aspect=fixed;pointerEvents=1;shape=mxgraph.aws4.traditional_server;" vertex="1" parent="sVO2ctUpy_3r26cttc1g-57">
          <mxGeometry x="288" width="45" height="78" as="geometry" />
        </mxCell>
        <mxCell id="sVO2ctUpy_3r26cttc1g-18" value="" style="sketch=0;outlineConnect=0;fontColor=#232F3E;gradientColor=none;fillColor=#232F3D;strokeColor=none;dashed=0;verticalLabelPosition=bottom;verticalAlign=top;align=center;html=1;fontSize=12;fontStyle=0;aspect=fixed;pointerEvents=1;shape=mxgraph.aws4.traditional_server;" vertex="1" parent="sVO2ctUpy_3r26cttc1g-57">
          <mxGeometry x="381" width="48" height="80" as="geometry" />
        </mxCell>
        <mxCell id="sVO2ctUpy_3r26cttc1g-104" value="Geo Routing" style="shape=image;html=1;verticalAlign=top;verticalLabelPosition=bottom;labelBackgroundColor=#ffffff;imageAspect=0;aspect=fixed;image=https://cdn4.iconfinder.com/data/icons/virus-pandemic/96/Pandemic-128.png" vertex="1" parent="1">
          <mxGeometry x="512" y="192" width="78" height="78" as="geometry" />
        </mxCell>
        <mxCell id="sVO2ctUpy_3r26cttc1g-105" value="Caching Layer" style="rounded=0;whiteSpace=wrap;html=1;fillColor=#d5e8d4;strokeColor=#82b366;" vertex="1" parent="1">
          <mxGeometry x="208" y="448" width="432" height="32" as="geometry" />
        </mxCell>
        <mxCell id="sVO2ctUpy_3r26cttc1g-106" value="Message Queue" style="sketch=0;aspect=fixed;pointerEvents=1;shadow=0;dashed=0;html=1;strokeColor=none;labelPosition=center;verticalLabelPosition=bottom;verticalAlign=top;align=center;fillColor=#00188D;shape=mxgraph.azure.queue_generic" vertex="1" parent="1">
          <mxGeometry x="208" y="512" width="100" height="30" as="geometry" />
        </mxCell>
        <mxCell id="sVO2ctUpy_3r26cttc1g-110" value="Microservice" style="shape=image;html=1;verticalAlign=top;verticalLabelPosition=bottom;labelBackgroundColor=#ffffff;imageAspect=0;aspect=fixed;image=https://cdn0.iconfinder.com/data/icons/phosphor-thin-vol-3/256/hexagon-thin-128.png" vertex="1" parent="1">
          <mxGeometry x="559" y="512" width="78" height="78" as="geometry" />
        </mxCell>
      </root>
    </mxGraphModel>
  </diagram>
</mxfile>
